<?xml version="1.0" encoding="UTF-8" standalone="no"?>
<svg
   xmlns:dc="http://purl.org/dc/elements/1.1/"
   xmlns:cc="http://creativecommons.org/ns#"
   xmlns:rdf="http://www.w3.org/1999/02/22-rdf-syntax-ns#"
   xmlns:svg="http://www.w3.org/2000/svg"
   xmlns="http://www.w3.org/2000/svg"
   xmlns:sodipodi="http://sodipodi.sourceforge.net/DTD/sodipodi-0.dtd"
   xmlns:inkscape="http://www.inkscape.org/namespaces/inkscape"
   version="1.1"
   x="0px"
   y="0px"
   width="100px"
   height="100px"
   viewBox="0 0 100 100"
   enable-background="new 0 0 100 100"
   xml:space="preserve"
   id="svg2"
   inkscape:version="0.48.4 r9939"
   sodipodi:docname="icon_17975.svg"><metadata
     id="metadata120"><rdf:RDF><cc:Work
         rdf:about=""><dc:format>image/svg+xml</dc:format><dc:type
           rdf:resource="http://purl.org/dc/dcmitype/StillImage" /></cc:Work></rdf:RDF></metadata><defs
     id="defs118" /><sodipodi:namedview
     pagecolor="#ffffff"
     bordercolor="#666666"
     borderopacity="1"
     objecttolerance="10"
     gridtolerance="10"
     guidetolerance="10"
     inkscape:pageopacity="0"
     inkscape:pageshadow="2"
     inkscape:window-width="915"
     inkscape:window-height="790"
     id="namedview116"
     showgrid="false"
     inkscape:zoom="2.36"
     inkscape:cx="47.532766"
     inkscape:cy="50"
     inkscape:window-x="949"
     inkscape:window-y="137"
     inkscape:window-maximized="0"
     inkscape:current-layer="svg2" /><g
     id="Captions"><rect
       x="-192"
       width="185"
       height="99"
       id="rect5" /><rect
       y="-36"
       width="100"
       height="30"
       id="rect7" /><text
       transform="matrix(1 0 0 1 66 -19.5)"
       fill="#000000"
       font-family="'Helvetica'"
       font-size="2.4"
       id="text9">http://thenounproject.com</text>
<text
       transform="matrix(1 0 0 1 7.166 -24.5)"
       id="text11"><tspan
         x="0"
         y="0"
         fill="#000000"
         font-family="'Helvetica-Bold'"
         font-size="6.1578"
         id="tspan13">The Noun Project</tspan><tspan
         x="1.12"
         y="4.8"
         fill="#000000"
         font-family="'Helvetica-Bold'"
         font-size="4"
         id="tspan15">Icon Template</tspan></text>
<text
       transform="matrix(1 0 0 1 -178.5 10.5)"
       fill="#000000"
       font-family="'Helvetica-Bold'"
       font-size="6.1578"
       id="text17">Reminders</text>
<line
       fill="#000000"
       stroke="#FFFFFF"
       stroke-miterlimit="10"
       x1="8"
       y1="-14.5"
       x2="18"
       y2="-14.5"
       id="line19" /><line
       fill="#000000"
       stroke="#FFFFFF"
       stroke-miterlimit="10"
       x1="-179"
       y1="16.5"
       x2="-162"
       y2="16.5"
       id="line21" /><g
       id="g23"><g
         id="g25"><g
           id="g27"><rect
             x="-170.802"
             y="31.318"
             fill="#000000"
             width="8.721"
             height="8.642"
             id="rect29" /><path
             fill="#000000"
             d="M-164.455,42.312h4.747v-4.703h-4.747V42.312z M-159.266,42.749h-5.63V37.17h5.63V42.749      L-159.266,42.749z M-166.221,44.062h8.279v-8.203h-8.279V44.062L-166.221,44.062z M-157.5,44.5h-9.163v-9.079h9.163V44.5      L-157.5,44.5z"
             id="path31" /><polygon
             fill="#000000"
             points="-166.149,44.133 -166.292,43.991 -158.013,35.787 -157.871,35.929     "
             id="polygon33" /></g></g></g><rect
       x="-179"
       y="58"
       fill="none"
       width="35"
       height="32.5"
       id="rect35" /><text
       transform="matrix(1 0 0 1 -179 60.1572)"
       id="text37"><tspan
         x="0"
         y="0"
         fill="#000000"
         font-family="'Helvetica-Bold'"
         font-size="3"
         id="tspan39">Strokes</tspan><tspan
         x="0"
         y="5"
         fill="#000000"
         font-family="'Helvetica'"
         font-size="2.4"
         id="tspan41">Try to keep strokes at 4px</tspan><tspan
         x="0"
         y="10"
         fill="#000000"
         font-family="'Helvetica'"
         font-size="2.4"
         id="tspan43">Minimum stroke weight is 2px</tspan><tspan
         x="0"
         y="14.5"
         fill="#000000"
         font-family="'Helvetica'"
         font-size="2.4"
         id="tspan45">For thicker strokes use even </tspan><tspan
         x="0"
         y="17.5"
         fill="#000000"
         font-family="'Helvetica'"
         font-size="2.4"
         id="tspan47">numbers: 6px, 8px etc.</tspan><tspan
         x="0"
         y="22"
         fill="#000000"
         font-family="'Helvetica-Bold'"
         font-size="2.4"
         id="tspan49">Remember to expand strokes </tspan><tspan
         x="0"
         y="25"
         fill="#000000"
         font-family="'Helvetica-Bold'"
         font-size="2.4"
         id="tspan51">before saving as an SVG </tspan></text>
<rect
       x="-136.5"
       y="58"
       fill="none"
       width="35"
       height="32.5"
       id="rect53" /><text
       transform="matrix(1 0 0 1 -136.5 60.1572)"
       id="text55"><tspan
         x="0"
         y="0"
         fill="#000000"
         font-family="'Helvetica-Bold'"
         font-size="3"
         id="tspan57">Size</tspan><tspan
         x="0"
         y="5"
         fill="#000000"
         font-family="'Helvetica'"
         font-size="2.4"
         id="tspan59">Cannot be wider or taller than </tspan><tspan
         x="0"
         y="8.5"
         fill="#000000"
         font-family="'Helvetica'"
         font-size="2.4"
         id="tspan61">100px (artboard size)</tspan><tspan
         x="0"
         y="13.5"
         fill="#000000"
         font-family="'Helvetica'"
         font-size="2.4"
         id="tspan63">Scale your icon to fill as much of </tspan><tspan
         x="0"
         y="16.5"
         fill="#000000"
         font-family="'Helvetica'"
         font-size="2.4"
         id="tspan65">the artboard as possible</tspan></text>
<rect
       x="-94"
       y="58"
       fill="none"
       width="35"
       height="32.5"
       id="rect67" /><text
       transform="matrix(1 0 0 1 -94 60.1572)"
       id="text69"><tspan
         x="0"
         y="0"
         fill="#000000"
         font-family="'Helvetica-Bold'"
         font-size="3"
         id="tspan71">Ungroup</tspan><tspan
         x="0"
         y="5"
         fill="#000000"
         font-family="'Helvetica'"
         font-size="2.4"
         id="tspan73">If your design has more than one </tspan><tspan
         x="0"
         y="8"
         fill="#000000"
         font-family="'Helvetica'"
         font-size="2.4"
         id="tspan75">shape, make sure to ungroup</tspan></text>
<rect
       x="-50"
       y="58"
       fill="none"
       width="35"
       height="32.5"
       id="rect77" /><text
       transform="matrix(1 0 0 1 -50 60.1572)"
       id="text79"><tspan
         x="0"
         y="0"
         fill="#000000"
         font-family="'Helvetica-Bold'"
         font-size="3"
         id="tspan81">Save as</tspan><tspan
         x="0"
         y="5"
         fill="#000000"
         font-family="'Helvetica'"
         font-size="2.4"
         id="tspan83">Save as .SVG and make sure </tspan><tspan
         x="0"
         y="8"
         fill="#000000"
         font-family="'Helvetica'"
         font-size="2.4"
         id="tspan85">“Use Artboards” is checked</tspan></text>
<text
       transform="matrix(1.0074 0 0 1 -125.542 30.5933)"
       fill="#000000"
       font-family="'Helvetica'"
       font-size="2.5731"
       id="text87">100px</text>
<text
       transform="matrix(1.0074 0 0 1 -41 39)"
       fill="#000000"
       font-family="'Helvetica-Bold'"
       font-size="5.1462"
       id="text89">.SVG</text>
<rect
       x="-126.514"
       y="34.815"
       fill="#000000"
       width="10.261"
       height="10.185"
       id="rect91" /><rect
       x="-126.477"
       y="31.766"
       fill="#000000"
       width="0.522"
       height="2.337"
       id="rect93" /><rect
       x="-116.812"
       y="31.766"
       fill="#000000"
       width="0.523"
       height="2.337"
       id="rect95" /><rect
       x="-127"
       y="32.337"
       fill="#000000"
       width="11.233"
       height="0.572"
       id="rect97" /><g
       id="g99"><rect
         x="-83.805"
         y="33.844"
         fill="#000000"
         width="10.305"
         height="10.156"
         id="rect101" /><rect
         x="-76.809"
         y="28.707"
         fill="#000000"
         width="3.308"
         height="3.261"
         id="rect103" /></g><rect
       x="-178.5"
       y="22.5"
       fill="#000000"
       stroke="#FFFFFF"
       stroke-miterlimit="10"
       width="30"
       height="30"
       id="rect105" /><rect
       x="-136.5"
       y="22.5"
       fill="#000000"
       stroke="#FFFFFF"
       stroke-miterlimit="10"
       width="30"
       height="30"
       id="rect107" /><rect
       x="-93.5"
       y="22.5"
       fill="#000000"
       stroke="#FFFFFF"
       stroke-miterlimit="10"
       width="30"
       height="30"
       id="rect109" /><rect
       x="-49.5"
       y="22.5"
       fill="#000000"
       stroke="#FFFFFF"
       stroke-miterlimit="10"
       width="30"
       height="30"
       id="rect111" /></g><g
     id="Your_Icon"
     style="fill:#657277;fill-opacity:1"><path
       fill-rule="evenodd"
       clip-rule="evenodd"
       d="M94.675,19.21c-3.434-6.029-9.972-9.254-17.021-9.19l0.271-2.443   C78.38,3.448,75.898,0,72.367,0H27.611c-3.532,0-6.013,3.448-5.557,7.577l0.361,3.265c-7.083-0.307-13.73,3.02-17.166,9.439   c-5.206,9.728-1.072,22.817,9.233,29.236c4.082,2.542,8.516,3.635,12.71,3.449c3.454,17.43,19.735,12.061,19.98,22.032   c0,13.89-2.799,19.444-19.59,25.001H72.36c-16.791-8.334-19.59-11.111-19.59-25.001c0.254-10.324,17.955-6.24,20.338-24.032   c4.002-0.033,8.166-1.115,12.025-3.374C95.782,41.362,100.054,28.654,94.675,19.21z M17.176,44.485   c-7.729-4.814-10.98-14.35-7.261-21.298c2.541-4.749,7.68-7.056,13.145-6.507l1.238,11.194l2.136,19.326   C23.39,47.22,20.168,46.348,17.176,44.485z M63.726,25.105l-5.293,4.844l1.178,6.448c0.095,0.214,0.148,0.448,0.148,0.693   c0,0.997-0.862,1.807-1.928,1.807c-0.01,0.002-0.028,0.002-0.048,0c-0.305,0-0.613-0.068-0.895-0.208l-6.542-3.226l-6.541,3.226   c-0.651,0.32-1.437,0.265-2.029-0.137c-0.592-0.406-0.889-1.09-0.764-1.768l1.248-6.837l-5.293-4.844   c-0.524-0.481-0.712-1.201-0.486-1.854c0.226-0.656,0.83-1.132,1.554-1.232l7.31-0.995l3.276-6.226c0.648-1.232,2.802-1.232,3.45,0   l3.277,6.226l7.31,0.995c0.724,0.1,1.328,0.576,1.553,1.232C64.438,23.905,64.25,24.625,63.726,25.105z M82.352,42.708   c-2.776,1.625-5.744,2.465-8.599,2.608l1.928-17.442l1.349-12.202c5.36-0.271,10.317,1.957,12.826,6.359   C93.696,28.776,90.338,38.034,82.352,42.708z"
       id="path114"
       style="fill:#657277;fill-opacity:1" /></g></svg>