<?xml version="1.0" encoding="UTF-8" standalone="no"?>
<svg
   xmlns:dc="http://purl.org/dc/elements/1.1/"
   xmlns:cc="http://creativecommons.org/ns#"
   xmlns:rdf="http://www.w3.org/1999/02/22-rdf-syntax-ns#"
   xmlns:svg="http://www.w3.org/2000/svg"
   xmlns="http://www.w3.org/2000/svg"
   xmlns:sodipodi="http://sodipodi.sourceforge.net/DTD/sodipodi-0.dtd"
   xmlns:inkscape="http://www.inkscape.org/namespaces/inkscape"
   version="1.1"
   id="Medal"
   x="0px"
   y="0px"
   width="100px"
   height="100px"
   viewBox="0 0 100 100"
   enable-background="new 0 0 100 100"
   xml:space="preserve"
   inkscape:version="0.48.4 r9939"
   sodipodi:docname="icon_13720.svg"><metadata
     id="metadata13"><rdf:RDF><cc:Work
         rdf:about=""><dc:format>image/svg+xml</dc:format><dc:type
           rdf:resource="http://purl.org/dc/dcmitype/StillImage" /></cc:Work></rdf:RDF></metadata><defs
     id="defs11" /><sodipodi:namedview
     pagecolor="#ffffff"
     bordercolor="#666666"
     borderopacity="1"
     objecttolerance="10"
     gridtolerance="10"
     guidetolerance="10"
     inkscape:pageopacity="0"
     inkscape:pageshadow="2"
     inkscape:window-width="922"
     inkscape:window-height="739"
     id="namedview9"
     showgrid="false"
     inkscape:zoom="4.72"
     inkscape:cx="39.697306"
     inkscape:cy="60.568434"
     inkscape:window-x="0"
     inkscape:window-y="0"
     inkscape:window-maximized="0"
     inkscape:current-layer="Medal" /><path
     d="M49.568,43.344c-15.646,0-28.328,12.684-28.328,28.329C21.24,87.316,33.922,100,49.568,100  c15.646,0,28.328-12.684,28.328-28.327C77.896,56.027,65.214,43.344,49.568,43.344z M49.568,97.427  c-14.2,0-25.753-11.554-25.753-25.754s11.553-25.753,25.753-25.753c14.201,0,25.753,11.553,25.753,25.753  S63.769,97.427,49.568,97.427z"
     id="path3"
     style="fill:#657277;fill-opacity:1" /><path
     d="M49.568,50.04c-11.928,0-21.632,9.704-21.632,21.633c0,11.929,9.704,21.632,21.632,21.632  c11.927,0,21.634-9.703,21.634-21.632C71.202,59.743,61.495,50.04,49.568,50.04z M58.733,70.575c0,0,0.001,0,0.002,0l-4.581,3.541  l1.752,5.605c-0.002,0-0.006,0-0.009,0c0.047,0.129,0.077,0.266,0.077,0.412c0,0.661-0.535,1.195-1.197,1.195  c-0.333,0-0.633-0.137-0.852-0.354l-4.353-3.346l-4.513,3.458c-0.002,0-0.005,0-0.007-0.002c-0.201,0.151-0.449,0.244-0.72,0.244  c-0.661,0-1.196-0.534-1.196-1.195c0-0.181,0.041-0.347,0.112-0.5l1.73-5.539l-4.65-3.576c0.002-0.002,0.002-0.002,0.004-0.005  c-0.257-0.222-0.422-0.541-0.422-0.907c0-0.661,0.535-1.195,1.196-1.195c0.01,0,0.018,0.003,0.027,0.003h5.435l1.825-5.476  c0.001,0.003,0.003,0.003,0.004,0.003c0.124-0.531,0.596-0.927,1.164-0.927c0.535,0,0.983,0.354,1.135,0.84c0.001,0,0.002,0,0.003,0  l1.853,5.56h5.528c-0.004,0.002-0.004,0.005-0.004,0.007c0.638,0.027,1.147,0.547,1.147,1.19  C59.226,70.009,59.031,70.357,58.733,70.575z"
     id="path5"
     style="fill:#657277;fill-opacity:1" /><path
     d="M73.501,0H25.634c0,0-2.783,0-2.783,2.783v3.415c0,0,0,2.783,2.783,2.783h3.771v10.443c0,0.55,0.22,1.393,0.487,1.873  L42.59,39.521c0.247,0.446,0.859,0.999,1.359,1.227l0.966,0.166h4.653h4.653l0.968-0.166c0.498-0.229,1.11-0.781,1.357-1.227  l12.697-18.225c0.269-0.479,0.486-1.323,0.486-1.873V8.98h3.771c0,0,2.784,0,2.784-2.783V2.783C76.285,2.783,76.285,0,73.501,0z"
     id="path7"
     style="fill:#657277;fill-opacity:1" /></svg>